HIERARCHY
ROOT Hips
{
	OFFSET 0.000000 0.000000 0.000000
	CHANNELS 6 Xposition Yposition Zposition Xrotation Yrotation Zrotation
	JOINT LeftUpLeg_virtual
	{
		OFFSET 0.000000 0.000000 0.000000
		CHANNELS 3 Xrotation Yrotation Zrotation
		JOINT LeftUpLeg
		{
			OFFSET 11.394100 -6.187798 -0.413800
			CHANNELS 3 Xrotation Yrotation Zrotation
			JOINT LeftLeg
			{
				OFFSET 0.430247 -32.302673 3.732800
				CHANNELS 3 Xrotation Yrotation Zrotation
				JOINT LeftFoot
				{
					OFFSET -0.430247 -48.264931 -6.423300
					CHANNELS 3 Xrotation Yrotation Zrotation
					JOINT LeftToeBase
					{
						OFFSET 4.230900 -16.068199 23.438400
						CHANNELS 3 Xrotation Yrotation Zrotation
						JOINT LeftToe_End
						{
							OFFSET 4.510700 0.695400 19.974600
							CHANNELS 3 Xrotation Yrotation Zrotation
							End Site
							{
								OFFSET 0 0 0
							}
						}
					}
				}
			}
		}
	}
	JOINT RightUpLeg_virtual
	{
		OFFSET 0.000000 0.000000 0.000000
		CHANNELS 3 Xrotation Yrotation Zrotation
		JOINT RightUpLeg
		{
			OFFSET -11.333700 -6.187798 -0.413800
			CHANNELS 3 Xrotation Yrotation Zrotation
			JOINT RightLeg
			{
				OFFSET -0.430392 -32.302628 3.733000
				CHANNELS 3 Xrotation Yrotation Zrotation
				JOINT RightFoot
				{
					OFFSET 0.430392 -48.264973 -6.423500
					CHANNELS 3 Xrotation Yrotation Zrotation
					JOINT RightToeBase
					{
						OFFSET -4.230900 -16.068199 23.438400
						CHANNELS 3 Xrotation Yrotation Zrotation
						JOINT RightToe_End
						{
							OFFSET -4.510700 0.695400 19.974600
							CHANNELS 3 Xrotation Yrotation Zrotation
							End Site
							{
								OFFSET 0 0 0
							}
						}
					}
				}
			}
		}
	}
	JOINT Spine_virtual
	{
		OFFSET 0.000000 0.000000 0.000000
		CHANNELS 3 Xrotation Yrotation Zrotation
		JOINT Spine
		{
			OFFSET -0.002400 12.777504 0.315300
			CHANNELS 3 Xrotation Yrotation Zrotation
			JOINT Spine1
			{
				OFFSET -0.002067 5.816869 0.032633
				CHANNELS 3 Xrotation Yrotation Zrotation
				JOINT Spine1_split
				{
					OFFSET -0.002067 5.816869 0.032633
					CHANNELS 3 Xrotation Yrotation Zrotation
					JOINT Spine2
					{
						OFFSET -0.002067 5.816869 0.032633
						CHANNELS 3 Xrotation Yrotation Zrotation
						JOINT Neck_virtual
						{
							OFFSET 0.000000 0.000000 0.000000
							CHANNELS 3 Xrotation Yrotation Zrotation
							JOINT Neck
							{
								OFFSET -0.003700 21.199493 -0.826900
								CHANNELS 3 Xrotation Yrotation Zrotation
								JOINT Head
								{
									OFFSET 0.000000 20.442200 4.834800
									CHANNELS 3 Xrotation Yrotation Zrotation
									JOINT HeadTop_End
									{
										OFFSET 0.000000 34.668396 4.968400
										CHANNELS 3 Xrotation Yrotation Zrotation
										End Site
										{
											OFFSET 0 0 0
										}
									}
								}
							}
						}
						JOINT LeftShoulder_virtual
						{
							OFFSET 0.000000 0.000000 0.000000
							CHANNELS 3 Xrotation Yrotation Zrotation
							JOINT LeftShoulder
							{
								OFFSET 3.288150 8.794197 -1.372250
								CHANNELS 3 Xrotation Yrotation Zrotation
								JOINT LeftShoulder_split
								{
									OFFSET 3.288150 8.794197 -1.372250
									CHANNELS 3 Xrotation Yrotation Zrotation
									JOINT LeftArm
									{
										OFFSET 11.953299 -2.279007 -0.146200
										CHANNELS 3 Xrotation Yrotation Zrotation
										JOINT LeftForeArm
										{
											OFFSET 18.448900 0.000000 0.000000
											CHANNELS 3 Xrotation Yrotation Zrotation
											JOINT LeftHand
											{
												OFFSET 29.527798 0.000000 0.000000
												CHANNELS 3 Xrotation Yrotation Zrotation
												End Site
												{
													OFFSET 0 0 0
												}
											}
										}
									}
								}
							}
						}
						JOINT RightShoulder_virtual
						{
							OFFSET 0.000000 0.000000 0.000000
							CHANNELS 3 Xrotation Yrotation Zrotation
							JOINT RightShoulder
							{
								OFFSET -3.249400 8.794197 -1.372250
								CHANNELS 3 Xrotation Yrotation Zrotation
								JOINT RightShoulder_split
								{
									OFFSET -3.249400 8.794197 -1.372250
									CHANNELS 3 Xrotation Yrotation Zrotation
									JOINT RightArm
									{
										OFFSET -11.953299 -2.279007 -0.146200
										CHANNELS 3 Xrotation Yrotation Zrotation
										JOINT RightForeArm
										{
											OFFSET -18.448900 0.000000 0.000000
											CHANNELS 3 Xrotation Yrotation Zrotation
											JOINT RightHand
											{
												OFFSET -29.527802 0.000000 0.000000
												CHANNELS 3 Xrotation Yrotation Zrotation
												End Site
												{
													OFFSET 0 0 0
												}
											}
										}
									}
								}
							}
						}
					}
				}
			}
		}
	}
}
MOTION
Frames: 6
Frame Time: 0.03333333
3.610820 22.849102 -10.988993 0.000000 0.000000 0.000000 83.564475 5.795113 -4.970382 -11.761751 8.744905 17.465224 29.010986 20.222344 1.002526 34.069953 27.211948 -14.373235 0.794220 3.242567 20.452861 0.000000 0.000000 0.000000 81.811903 -1.037656 -3.384753 -10.900110 -5.706644 -14.596335 -1.473640 -8.374882 -0.768388 40.882753 -16.388235 18.522305 21.886969 -5.397064 -16.668235 0.000000 0.000000 0.000000 88.078568 3.298879 -4.850367 2.931848 0.152198 -1.847552 1.570149 0.304875 0.047595 0.379115 -2.372594 0.963357 0.000000 0.000000 0.000000 0.440544 0.173303 -0.438289 -4.764434 -13.152685 5.873930 -17.985823 -56.812646 -18.510180 0.000000 0.000000 0.000000 1.060844 0.251438 -0.406290 3.200644 -18.260709 -3.064119 -1.021819 -0.803912 -1.814606 25.321413 -22.632887 -55.035352 0.552237 -26.901293 -1.036608 0.000000 0.000000 0.000000 1.068495 0.423176 -0.253863 -0.236098 11.869469 11.818653 6.221960 6.607951 -1.542959 8.718233 -8.436198 55.429239 0.429884 27.673452 2.334208 0.000000 0.000000 0.000000 
3.608680 22.848701 -10.999907 0.000000 0.000000 0.000000 83.561777 5.797586 -4.972437 -11.781001 8.738217 17.462419 29.021368 20.222392 0.994569 34.081469 27.222631 -14.367240 0.779843 3.241950 20.453901 0.000000 0.000000 0.000000 81.810681 -1.030802 -3.394431 -10.903310 -5.691807 -14.599077 -1.462802 -8.368665 -0.770359 40.879963 -16.378720 18.533727 21.885282 -5.395639 -16.675861 0.000000 0.000000 0.000000 88.073350 3.297829 -4.844778 2.931471 0.154336 -1.842164 1.566741 0.303922 0.048688 0.378609 -2.361909 0.964111 0.000000 0.000000 0.000000 0.439687 0.173307 -0.439822 -4.770698 -13.153896 5.873680 -17.985285 -56.800263 -18.512504 0.000000 0.000000 0.000000 1.065576 0.249461 -0.403395 3.208361 -18.279181 -3.037794 -1.028564 -0.799677 -1.821046 25.312461 -22.619570 -55.038682 0.547312 -26.880826 -1.028348 0.000000 0.000000 0.000000 1.069031 0.421561 -0.253274 -0.236570 11.863235 11.818509 6.238119 6.635270 -1.540092 8.713800 -8.437492 55.410067 0.443188 27.679396 2.330286 0.000000 0.000000 0.000000 
3.606849 22.849796 -11.018091 0.000000 0.000000 0.000000 83.557761 5.806998 -4.986505 -11.821932 8.735266 17.466493 29.044614 20.224651 0.984304 34.105897 27.230106 -14.367721 0.758436 3.239811 20.455489 0.000000 0.000000 0.000000 81.805531 -1.019879 -3.411448 -10.891570 -5.665937 -14.596044 -1.458732 -8.361955 -0.776500 40.877798 -16.366837 18.549971 21.915338 -5.391888 -16.653465 0.000000 0.000000 0.000000 88.064634 3.296500 -4.837203 2.930976 0.160109 -1.836265 1.565658 0.304187 0.050780 0.378564 -2.346838 0.962823 0.000000 0.000000 0.000000 0.436488 0.173942 -0.439823 -4.776299 -13.153069 5.867725 -17.965552 -56.791623 -18.508377 0.000000 0.000000 0.000000 1.071643 0.248578 -0.399726 3.218754 -18.323360 -3.009831 -1.030537 -0.807732 -1.827876 25.306546 -22.597580 -55.034341 0.526213 -26.835461 -1.037365 0.000000 0.000000 0.000000 1.072333 0.421271 -0.252017 -0.237588 11.851784 11.821958 6.272153 6.670379 -1.542120 8.698847 -8.475799 55.390109 0.459547 27.684020 2.327623 0.000000 0.000000 0.000000 
3.603490 22.851345 -11.038912 0.000000 0.000000 0.000000 83.554134 5.819728 -5.012012 -11.889346 8.736982 17.480474 29.081962 20.227667 0.969753 34.139871 27.232058 -14.376766 0.732658 3.236399 20.458266 0.000000 0.000000 0.000000 81.799425 -1.004687 -3.437866 -10.870376 -5.627203 -14.587317 -1.455545 -8.352866 -0.785663 40.877118 -16.352882 18.572493 21.972415 -5.385832 -16.607364 0.000000 0.000000 0.000000 88.052039 3.291091 -4.830537 2.932229 0.168559 -1.829442 1.566560 0.305448 0.053486 0.379275 -2.341317 0.964014 0.000000 0.000000 0.000000 0.431134 0.174958 -0.438914 -4.780153 -13.151881 5.858444 -17.925365 -56.786401 -18.495264 0.000000 0.000000 0.000000 1.077895 0.248528 -0.395359 3.231543 -18.387977 -2.981336 -1.027642 -0.823750 -1.839816 25.302630 -22.564283 -55.024776 0.494762 -26.793521 -1.059807 0.000000 0.000000 0.000000 1.076821 0.422333 -0.250589 -0.240089 11.835553 11.829010 6.315585 6.711693 -1.543478 8.669317 -8.550523 55.367819 0.475215 27.676608 2.324513 0.000000 0.000000 0.000000 
3.599774 22.852707 -11.062613 0.000000 0.000000 0.000000 83.549005 5.834049 -5.045405 -11.981035 8.738778 17.501144 29.137607 20.230086 0.950213 34.178349 27.230789 -14.394839 0.704602 3.232448 20.461553 0.000000 0.000000 0.000000 81.792410 -0.985341 -3.472285 -10.849348 -5.576571 -14.576034 -1.446542 -8.336585 -0.796486 40.879604 -16.329864 18.606415 22.034119 -5.375874 -16.548970 0.000000 0.000000 0.000000 88.038618 3.280756 -4.826823 2.935107 0.178420 -1.820559 1.569231 0.307222 0.055521 0.382730 -2.341293 0.962516 0.000000 0.000000 0.000000 0.424638 0.175953 -0.437913 -4.782182 -13.149365 5.847345 -17.873488 -56.783184 -18.477151 0.000000 0.000000 0.000000 1.082662 0.248963 -0.390378 3.245057 -18.466977 -2.954792 -1.013990 -0.832870 -1.856973 25.294477 -22.527292 -55.014315 0.462014 -26.771519 -1.087442 0.000000 0.000000 0.000000 1.081363 0.423674 -0.250454 -0.242726 11.814344 11.838188 6.352947 6.742906 -1.547915 8.631551 -8.649086 55.339029 0.488582 27.665396 2.319712 0.000000 0.000000 0.000000 
3.594251 22.854156 -11.089369 0.000000 0.000000 0.000000 83.544142 5.850029 -5.083320 -12.087468 8.740179 17.524472 29.209902 20.233693 0.925163 34.211243 27.233100 -14.417752 0.676067 3.228469 20.464244 0.000000 0.000000 0.000000 81.785798 -0.962948 -3.510619 -10.834464 -5.519417 -14.565098 -1.428928 -8.310597 -0.808154 40.887025 -16.295165 18.654433 22.080193 -5.360967 -16.489002 0.000000 0.000000 0.000000 88.024992 3.268373 -4.827602 2.937889 0.187789 -1.808592 1.572724 0.308732 0.055896 0.388921 -2.347697 0.962348 0.000000 0.000000 0.000000 0.417011 0.176503 -0.437676 -4.782157 -13.146147 5.835678 -17.812027 -56.779574 -18.453414 0.000000 0.000000 0.000000 1.085723 0.249799 -0.385254 3.258787 -18.557060 -2.934092 -0.993798 -0.830232 -1.878449 25.287116 -22.494195 -54.998244 0.436273 -26.774338 -1.109986 0.000000 0.000000 0.000000 1.086101 0.424752 -0.252295 -0.243503 11.788281 11.849797 6.389383 6.759242 -1.554157 8.591703 -8.755112 55.300224 0.499021 27.660542 2.312400 0.000000 0.000000 0.000000 
